<?xml version="1.0" encoding="UTF-8"?>
<svg width="110px" height="110px" viewBox="0 0 110 110" version="1.1" xmlns="http://www.w3.org/2000/svg" xmlns:xlink="http://www.w3.org/1999/xlink">
    <title>goods_ic_appreciation</title>
    <defs>
        <linearGradient x1="62.9768808%" y1="10.6618%" x2="33.1608938%" y2="81.6177%" id="linearGradient-1">
            <stop stop-color="#18C8FF" offset="0%"></stop>
            <stop stop-color="#933FFE" offset="100%"></stop>
        </linearGradient>
    </defs>
    <g id="页面-1" stroke="none" stroke-width="1" fill="none" fill-rule="evenodd">
        <g id="理财_h5" transform="translate(-30.000000, -538.000000)">
            <g id="goods_ic_appreciation" transform="translate(30.000000, 538.000000)">
                <rect id="Frame-27" fill="#1D1E27" x="0" y="0" width="110" height="110" rx="55"></rect>
                <g id="编组" transform="translate(32.000000, 36.000000)" stroke-linecap="round" stroke-linejoin="round" stroke-width="4">
                    <path d="M22.5310554,9.76720136 C25.2479283,9.76720136 27.450389,11.969662 27.450389,14.686535 L27.450389,30.0806664 C27.450389,32.7975393 25.2479283,35 22.5310554,35 C19.8141824,35 17.6117218,32.7975393 17.6117218,30.0806664 L17.6117218,14.686535 C17.6117218,11.969662 19.8141824,9.76720136 22.5310554,9.76720136 Z" id="形状" stroke="#FFFFFF"></path>
                    <path d="M40.1103838,0 C42.8108443,-4.96066539e-16 45,2.18915574 45,4.8896162 L45,30.1103838 C45,32.8108443 42.8108443,35 40.1103838,35 C37.4099233,35 35.2207676,32.8108443 35.2207676,30.1103838 L35.2207676,4.8896162 C35.2207676,2.18915574 37.4099233,4.96066539e-16 40.1103838,0 Z" id="路径" stroke="#FFFFFF"></path>
                    <path d="M4.91851225,19.3786854 C7.63542237,19.3803619 9.83702451,21.583323 9.83702451,24.3002336 L9.83702451,29.6323019 C9.83702451,32.3470461 7.63628956,34.547781 4.92154542,34.547781 C4.92053436,34.547781 4.91952331,34.5477807 4.91851225,34.5477801 C2.20160213,34.5461036 2.67888857e-15,32.3431425 0,29.6262319 L0,24.2941636 C-3.32460272e-16,21.5794194 2.20073495,19.3786845 4.91547909,19.3786845 C4.91649015,19.3786845 4.9175012,19.3786848 4.91851225,19.3786854 Z" id="路径" stroke="url(#linearGradient-1)"></path>
                </g>
            </g>
        </g>
    </g>
</svg>