<?xml version="1.0" encoding="UTF-8"?>
<svg width="110px" height="110px" viewBox="0 0 110 110" version="1.1" xmlns="http://www.w3.org/2000/svg" xmlns:xlink="http://www.w3.org/1999/xlink">
    <title>goods_ic_vip</title>
    <defs>
        <linearGradient x1="80.8823%" y1="32.9339373%" x2="9.9264%" y2="63.7166838%" id="linearGradient-1">
            <stop stop-color="#18C8FF" offset="0%"></stop>
            <stop stop-color="#933FFE" offset="100%"></stop>
        </linearGradient>
    </defs>
    <g id="页面-1" stroke="none" stroke-width="1" fill="none" fill-rule="evenodd">
        <g id="理财_h5" transform="translate(-415.000000, -538.000000)">
            <g id="goods_ic_vip" transform="translate(415.000000, 538.000000)">
                <rect id="Frame-27备份-7" fill="#1D1E27" x="0" y="0" width="110" height="110" rx="55"></rect>
                <g id="编组" transform="translate(30.000000, 34.000000)" stroke-linecap="round" stroke-linejoin="round" stroke-width="4">
                    <path d="M13.4934554,12.9778842 L23.058018,1.15581054 C23.6486972,0.425739638 24.5480771,0 25.4996812,0 C26.4512853,0 27.3506653,0.425739638 27.9413445,1.15581054 L37.505907,12.9778842 L46.6592756,9.13949998 C47.7258817,8.69235317 48.9580884,8.86255824 49.8565291,9.58113754 C50.7549699,10.2997168 51.1706289,11.4474864 50.9350552,12.5592988 L45.5895338,37.7617565 C44.9422891,40.8128987 42.1949837,43 39.0104307,43 L11.9889318,43 C8.80437876,43 6.05707339,40.8128987 5.40982863,37.7617565 L0.0649448212,12.5592988 C-0.170628842,11.4474864 0.245030086,10.2997169 1.14347085,9.58113758 C2.04191161,8.86255829 3.27411829,8.6923532 4.34072436,9.13949998 L13.4940929,12.9778842 L13.4934554,12.9778842 Z" id="形状" stroke="#FFFFFF"></path>
                    <polyline id="路径-5" stroke="url(#linearGradient-1)" points="19.7085937 21.8427189 25.6495806 29.7170712 31.6637543 21.8427189"></polyline>
                </g>
            </g>
        </g>
    </g>
</svg>